<?xml version="1.0" standalone="no"?>
<!DOCTYPE svg PUBLIC "-//W3C//DTD SVG 20010904//EN"
 "http://www.w3.org/TR/2001/REC-SVG-20010904/DTD/svg10.dtd">
<svg version="1.0" xmlns="http://www.w3.org/2000/svg"
 width="607.000000pt" height="187.000000pt" viewBox="0 0 607.000000 187.000000"
 preserveAspectRatio="xMidYMid meet">

<g transform="translate(0.000000,187.000000) scale(0.100000,-0.100000)"
fill="#000000" stroke="none">
<path d="M330 920 l0 -600 2680 0 2680 0 0 600 0 600 -2680 0 -2680 0 0 -600z
m5310 0 l0 -550 -2630 0 -2630 0 0 550 0 550 2630 0 2630 0 0 -550z"/>
<path d="M3040 1331 c-75 -16 -137 -68 -167 -138 -15 -38 -18 -189 -3 -198 6
-4 29 10 51 30 43 39 62 41 67 7 2 -14 -12 -38 -43 -71 -27 -29 -44 -55 -40
-62 5 -7 35 17 85 66 52 52 83 76 96 73 37 -7 23 -36 -61 -125 -47 -50 -85
-94 -85 -97 0 -20 34 3 101 70 53 53 82 75 93 71 31 -12 15 -44 -64 -122 -44
-44 -80 -83 -80 -87 0 -21 31 -2 85 52 60 61 97 76 109 44 4 -11 -15 -38 -59
-83 -36 -37 -65 -72 -65 -77 0 -19 220 -184 245 -184 27 0 245 165 245 185 0
6 -27 37 -60 70 -61 60 -76 97 -44 109 11 4 38 -15 84 -60 42 -40 73 -63 80
-59 8 5 -17 36 -70 90 -56 56 -81 88 -78 101 7 39 38 26 117 -50 42 -42 80
-76 84 -76 22 0 -3 35 -78 110 -47 47 -85 90 -85 96 0 6 7 17 16 24 13 12 26
2 92 -63 70 -70 102 -91 102 -69 0 4 -18 26 -41 47 -53 52 -64 72 -48 91 16
20 24 18 64 -17 52 -46 65 -35 65 56 0 86 -13 125 -60 179 -43 49 -91 68 -170
69 -76 1 -115 -16 -175 -74 l-41 -39 -34 36 c-63 65 -148 93 -230 75z m114
-33 c28 -8 59 -31 99 -72 50 -51 60 -58 68 -44 52 94 162 144 257 119 43 -12
104 -58 123 -92 15 -29 29 -119 23 -146 l-6 -24 -22 20 c-29 27 -80 28 -99 1
-13 -18 -16 -19 -27 -5 -20 24 -67 19 -86 -10 -9 -13 -14 -30 -12 -37 3 -7 -6
-21 -20 -32 -19 -15 -23 -26 -19 -51 4 -24 0 -36 -14 -48 -34 -30 -24 -63 39
-129 l57 -60 -44 -37 c-24 -20 -71 -55 -104 -77 -59 -40 -62 -41 -87 -26 -43
28 -170 123 -176 134 -4 5 18 35 48 66 67 69 74 87 51 121 -10 14 -18 42 -19
61 -1 23 -8 39 -23 48 -13 9 -21 25 -21 43 0 20 -8 34 -26 46 -25 16 -28 16
-57 0 -29 -17 -31 -17 -52 3 -29 27 -47 25 -86 -7 l-32 -27 5 66 c8 93 38 144
107 180 58 31 92 34 155 16z"/>
<path d="M2390 1193 c0 -5 9 -18 18 -31 14 -18 26 -23 51 -20 l33 3 -22 28
c-15 18 -31 27 -51 27 -16 0 -29 -3 -29 -7z"/>
<path d="M4039 1161 l-29 -29 0 -210 0 -210 26 -31 c66 -79 184 -25 184 84 0
23 -4 25 -40 25 -39 0 -40 -1 -40 -34 0 -37 -15 -49 -42 -34 -16 8 -18 28 -18
192 0 150 3 186 15 196 21 18 45 5 45 -25 0 -23 4 -25 41 -25 41 0 41 0 35 31
-3 17 -6 35 -6 39 0 4 -12 19 -26 34 -39 38 -105 37 -145 -3z"/>
<path d="M4357 1162 l-27 -28 0 -218 0 -218 29 -29 c41 -41 101 -41 142 0 l29
29 0 217 0 217 -29 29 c-41 41 -105 41 -144 1z m101 -238 c3 -200 -2 -223 -42
-208 -14 5 -16 30 -16 198 0 106 3 196 7 200 4 4 16 6 28 4 19 -3 20 -10 23
-194z"/>
<path d="M4640 915 l0 -275 90 0 90 0 0 35 0 35 -50 0 -50 0 0 110 0 110 50 0
50 0 0 35 0 35 -50 0 -50 0 0 60 0 60 50 0 50 0 0 35 0 35 -90 0 -90 0 0 -275z"/>
<path d="M4930 965 c0 -242 6 -277 51 -309 39 -27 103 -21 141 13 l33 29 3
246 3 246 -36 0 -35 0 0 -223 c0 -246 -4 -266 -53 -253 l-27 6 0 235 0 235
-40 0 -40 0 0 -225z"/>
<path d="M5270 915 l0 -275 35 0 35 0 0 54 c0 30 4 57 9 61 6 3 20 -22 32 -55
22 -60 22 -60 61 -60 28 0 38 4 35 13 -3 6 -13 36 -23 64 -17 51 -17 53 2 74
17 19 19 37 19 184 0 159 -1 164 -24 189 -22 24 -32 26 -103 26 l-78 0 0 -275z
m130 60 l0 -145 -30 0 -30 0 0 145 0 145 30 0 30 0 0 -145z"/>
<path d="M1939 1081 c-25 -25 -29 -37 -29 -83 0 -49 5 -60 55 -130 45 -63 55
-83 55 -117 0 -29 -5 -44 -16 -48 -20 -8 -34 13 -34 53 0 26 -5 33 -25 36 -32
7 -35 2 -35 -44 0 -86 64 -133 132 -97 24 13 48 67 48 109 0 38 -10 57 -72
139 -51 67 -62 117 -33 141 22 18 35 3 35 -40 0 -44 10 -55 46 -46 19 5 24 13
24 37 0 103 -86 155 -151 90z"/>
<path d="M550 870 l0 -230 29 0 c28 0 30 2 33 47 3 45 5 48 36 54 67 14 72 27
72 176 0 129 -1 135 -25 158 -20 21 -34 25 -85 25 l-60 0 0 -230z m108 47 l3
-117 -26 0 -25 0 0 113 c0 63 3 117 7 121 4 4 14 5 23 4 12 -3 16 -24 18 -121z"/>
<path d="M855 1078 c-6 -29 -65 -414 -65 -428 0 -5 13 -10 29 -10 27 0 29 3
35 48 17 116 16 113 49 110 29 -3 32 -7 39 -48 19 -115 17 -110 49 -110 28 0
30 2 25 28 -3 15 -17 92 -31 172 -13 80 -29 169 -35 199 -5 29 -10 55 -10 57
0 2 -18 4 -40 4 -33 0 -40 -4 -45 -22z m67 -176 c3 -32 0 -37 -20 -40 -23 -4
-23 -2 -17 55 4 32 10 62 13 68 7 11 19 -32 24 -83z"/>
<path d="M1044 1085 c-12 -30 4 -45 46 -45 l40 0 0 -200 0 -200 30 0 30 0 2
198 3 197 38 3 c34 3 37 6 37 33 l0 29 -110 0 c-89 0 -112 -3 -116 -15z"/>
<path d="M1360 1070 c0 -28 2 -30 40 -30 l40 0 0 -200 0 -200 30 0 30 0 2 198
3 197 38 3 c34 3 37 6 37 33 l0 29 -110 0 -110 0 0 -30z"/>
<path d="M1670 870 l0 -230 75 0 75 0 0 30 c0 29 -2 30 -45 30 l-45 0 0 89 0
90 43 3 c37 3 42 6 45 30 3 25 0 27 -40 30 l-43 3 0 45 0 45 43 3 c39 3 42 5
42 33 l0 29 -75 0 -75 0 0 -230z"/>
<path d="M2421 1038 c-6 -35 -20 -126 -31 -203 -11 -77 -23 -152 -26 -167 -5
-26 -3 -28 25 -28 33 0 33 -1 48 100 8 52 10 55 39 58 35 3 33 6 50 -110 6
-45 8 -48 36 -48 28 0 30 2 25 33 -20 123 -69 404 -73 415 -2 7 -20 12 -43 12
l-39 0 -11 -62z m72 -131 c4 -28 2 -40 -9 -44 -27 -10 -32 10 -21 82 11 75 14
72 30 -38z"/>
</g>
</svg>
